<svg width="16" height="15" viewBox="0 0 16 15" fill="none" xmlns="http://www.w3.org/2000/svg">
<path d="M11.8954 11.2419L11.6211 11.5161C11.4697 11.6675 11.2242 11.6675 11.0728 11.5161L7.91952 8.36283L4.76623 11.5161C4.61482 11.6675 4.36929 11.6675 4.21785 11.5161L3.94365 11.2419C3.79222 11.0905 3.79222 10.845 3.94365 10.6935L7.09694 7.54025L3.94365 4.38695C3.79222 4.23555 3.79222 3.99002 3.94365 3.83858L4.21785 3.56439C4.36928 3.41295 4.61482 3.41295 4.76623 3.56439L7.91952 6.71767L11.0728 3.56438C11.2242 3.41295 11.4697 3.41295 11.6211 3.56438L11.8954 3.83858C12.0468 3.99001 12.0468 4.23555 11.8954 4.38695L8.74211 7.54025L11.8954 10.6935C12.0468 10.845 12.0468 11.0905 11.8954 11.2419Z" fill="black"/>
</svg>
